<?xml version="1.0" encoding="UTF-8"?>
<svg version="1.1" xmlns="http://www.w3.org/2000/svg" width="240" height="64">
<path d="M0,0 L240,0 L240,64 L0,64 Z " fill="#FBFCFC" transform="translate(0,0)"/>
<path d="M0,0 L7,1 L23,4 L33,4 L57,1 L62,0 L69,0 L74,5 L87,19 L94,27 L101,29 L101,30 L91,30 L82,21 L75,13 L67,4 L56,15 L47,26 L44,29 L26,29 L19,22 L12,14 L0,1 Z " fill="#4F854C" transform="translate(93,7)"/>
<path d="M0,0 L16,0 L24,10 L33,20 L38,27 L22,27 L12,16 L3,5 L2,2 L0,2 Z " fill="#3C623C" transform="translate(73,9)"/>
<path d="M0,0 L8,1 L11,5 L11,12 L6,17 L-2,17 L-6,11 L-5,4 Z " fill="#5A7F5F" transform="translate(80,39)"/>
<path d="M0,0 L4,2 L18,17 L25,25 L32,27 L32,28 L22,28 L13,19 L6,11 L-1,3 Z " fill="#406241" transform="translate(162,9)"/>
<path d="M0,0 L2,0 L2,2 L4,2 L2,6 L-8,15 L-15,23 L-16,24 L-25,24 L-22,22 L-16,18 L-3,4 Z " fill="#547B53" transform="translate(71,12)"/>
<path d="M0,0 L13,0 L13,5 L11,3 L6,2 L6,8 L10,5 L10,13 L6,9 L6,16 L8,17 L-1,17 L1,16 Z " fill="#9AB29E" transform="translate(117,39)"/>
<path d="M0,0 L5,0 L7,2 L7,11 L5,14 L0,13 L-2,10 L-2,3 Z " fill="#F3F6F3" transform="translate(80,41)"/>
<path d="M0,0 L4,2 L11,4 L6,10 L-5,10 L-5,4 Z " fill="#C3C4C3" transform="translate(136,13)"/>
<path d="M0,0 L2,0 L9,16 L2,16 L2,12 L-3,12 L-4,15 L-2,16 L-7,16 Z " fill="#527B59" transform="translate(187,40)"/>
<path d="M0,0 L5,0 L11,7 L12,0 L14,1 L13,16 L8,11 L3,5 L2,15 L4,16 L-1,16 L0,14 Z " fill="#598060" transform="translate(94,40)"/>
<path d="M0,0 L7,1 L6,4 L0,2 L1,5 L8,9 L8,15 L6,17 L-3,17 L-3,12 L-1,13 L-1,15 L5,16 L4,12 L-3,7 L-2,1 Z " fill="#537A59" transform="translate(201,39)"/>
<path d="M0,0 L7,1 L6,5 L5,3 L0,2 L1,5 L7,9 L8,14 L6,17 L-3,17 L-2,13 L0,15 L4,15 L4,12 L-2,9 L-3,2 Z " fill="#537A59" transform="translate(64,39)"/>
<path d="M0,0 L5,0 L5,14 L10,14 L13,11 L13,16 L-2,16 L0,15 Z " fill="#3B6741" transform="translate(149,40)"/>
<path d="M0,0 L5,0 L5,15 L11,13 L13,11 L13,16 L-1,16 L0,14 Z " fill="#3B6742" transform="translate(165,40)"/>
<path d="M0,0 L5,0 L4,14 L2,16 L-3,16 L-5,14 L-5,11 L-2,11 L-2,15 L0,15 Z " fill="#3C6842" transform="translate(35,40)"/>
<path d="M0,0 L3,3 L9,16 L2,16 L1,9 L-1,5 Z " fill="#507A57" transform="translate(50,40)"/>
<path d="M0,0 L4,4 L8,14 L9,16 L3,16 L-1,5 Z " fill="#4D7754" transform="translate(137,40)"/>
<path d="M0,0 L3,0 L3,7 L6,6 L8,4 L8,12 L6,9 L3,8 L3,15 L0,15 Z " fill="#446E4B" transform="translate(119,40)"/>
<path d="M0,0 L4,1 L5,3 L5,10 L2,14 L-1,13 L0,11 Z " fill="#446E4B" transform="translate(86,41)"/>
<path d="M0,0 L4,1 L11,3 L6,9 L2,8 L3,5 L1,4 L1,2 Z " fill="#E0E2E0" transform="translate(136,14)"/>
<path d="M0,0 L1,0 L1,14 L10,13 L13,10 L13,15 L-2,15 L0,14 Z " fill="#7EA285" transform="translate(149,41)"/>
<path d="M0,0 L1,0 L1,14 L7,12 L9,10 L9,15 L-5,15 L-3,13 L0,14 Z " fill="#7A9F81" transform="translate(169,41)"/>
<path d="M0,0 L2,0 L4,6 L-1,7 L-2,10 L0,11 L-5,11 Z " fill="#9DB6A1" transform="translate(185,45)"/>
<path d="M0,0 L4,1 L5,5 L-4,5 L-3,1 Z " fill="#B0B0B0" transform="translate(160,25)"/>
<path d="M0,0 L8,0 L8,4 L-1,4 Z " fill="#9FA0A0" transform="translate(157,31)"/>
<path d="M0,0 L5,1 L7,5 L-2,5 L-1,1 Z " fill="#ADAEAE" transform="translate(71,25)"/>
<path d="M0,0 L7,0 L7,4 L-1,4 Z " fill="#979897" transform="translate(70,31)"/>
<path d="M0,0 L1,0 L2,15 L-3,15 L-5,13 L-5,10 L-2,10 L-2,14 L0,14 Z " fill="#759579" transform="translate(35,41)"/>
<path d="M0,0 L3,3 L4,7 L-2,7 L-1,2 Z " fill="#AABEAC" transform="translate(135,44)"/>
<path d="M0,0 L2,1 L4,7 L-2,7 L-1,2 Z " fill="#ABBEAD" transform="translate(48,44)"/>
<path d="M0,0 L2,1 Z M-2,1 L2,3 L3,5 L-3,5 L-4,10 L-5,10 L-5,4 Z " fill="#B4BBB5" transform="translate(136,13)"/>
<path d="M0,0 L7,1 L6,5 L5,3 L0,2 L0,4 L-3,5 L-2,1 Z " fill="#739478" transform="translate(64,39)"/>
<path d="M0,0 L2,1 L2,3 L8,4 L9,1 L10,4 L9,5 L0,5 Z " fill="#7E9C82" transform="translate(198,51)"/>
</svg>
